<?xml version="1.0" encoding="UTF-8" standalone="no"?>
<!-- Created with Inkscape (http://www.inkscape.org/) -->

<svg
   xmlns:dc="http://purl.org/dc/elements/1.1/"
   xmlns:cc="http://creativecommons.org/ns#"
   xmlns:rdf="http://www.w3.org/1999/02/22-rdf-syntax-ns#"
   xmlns:svg="http://www.w3.org/2000/svg"
   xmlns="http://www.w3.org/2000/svg"
   xmlns:xlink="http://www.w3.org/1999/xlink"
   xmlns:sodipodi="http://sodipodi.sourceforge.net/DTD/sodipodi-0.dtd"
   xmlns:inkscape="http://www.inkscape.org/namespaces/inkscape"
   width="720"
   height="720"
   viewBox="0 0 190.5 190.5"
   version="1.1"
   id="svg8"
   enable-background="new"
   inkscape:version="0.92.3 (2405546, 2018-03-11)"
   sodipodi:docname="project-logo.svg">
  <defs
     id="defs2">
    <linearGradient
       inkscape:collect="always"
       id="linearGradient6183">
      <stop
         style="stop-color:#5599ff;stop-opacity:1"
         offset="0"
         id="stop6179" />
      <stop
         style="stop-color:#ddbbc9;stop-opacity:1"
         offset="1"
         id="stop6181" />
    </linearGradient>
    <linearGradient
       inkscape:collect="always"
       xlink:href="#linearGradient6183"
       id="linearGradient6185"
       x1="48.610008"
       y1="139.46564"
       x2="160.16898"
       y2="36.998779"
       gradientUnits="userSpaceOnUse"
       gradientTransform="matrix(0.95,0,0,0.95,4.7625,4.7625)" />
  </defs>
  <sodipodi:namedview
     id="base"
     pagecolor="#909090"
     bordercolor="#666666"
     borderopacity="1.0"
     inkscape:pageopacity="0"
     inkscape:pageshadow="2"
     inkscape:zoom="2"
     inkscape:cx="358.48115"
     inkscape:cy="454.29874"
     inkscape:document-units="mm"
     inkscape:current-layer="layer3"
     showgrid="false"
     showguides="true"
     inkscape:lockguides="true"
     units="px"
     width="720px"
     borderlayer="false"
     inkscape:showpageshadow="false"
     inkscape:pagecheckerboard="false"
     inkscape:window-width="2736"
     inkscape:window-height="1699"
     inkscape:window-x="-13"
     inkscape:window-y="-13"
     inkscape:window-maximized="1">
    <inkscape:grid
       type="xygrid"
       id="grid4542" />
  </sodipodi:namedview>
  <metadata
     id="metadata5">
    <rdf:RDF>
      <cc:Work
         rdf:about="">
        <dc:format>image/svg+xml</dc:format>
        <dc:type
           rdf:resource="http://purl.org/dc/dcmitype/StillImage" />
        <dc:title />
      </cc:Work>
    </rdf:RDF>
  </metadata>
  <g
     inkscape:groupmode="layer"
     id="layer3"
     inkscape:label="Gradient"
     style="display:inline">
    <circle
       style="fill:url(#linearGradient6185);fill-opacity:1;stroke-width:0.25135416"
       id="path4680"
       cx="95.25"
       cy="95.25"
       r="90.487503" />
  </g>
  <g
     inkscape:groupmode="layer"
     id="layer2"
     inkscape:label="Actual"
     transform="translate(0,-106.5)"
     style="display:inline">
    <path
       style="fill:#ffffff;stroke-width:0.99999994"
       d="M 360,0 A 360,360 0 0 0 0,360 360,360 0 0 0 360,720 360,360 0 0 0 720,360 360,360 0 0 0 360,0 Z m 0,25.689453 c 184.46309,0 334,149.536907 334,333.999997 0,184.4631 -149.53691,334 -334,334 -6.66252,0 -79.04299,-1.89308 -118.00195,-22.17187 l 43.66992,-223.25781 c 100.87334,0.65669 0.002,-0.0511 100.875,0.65625 153.12627,1.07365 202.39061,-108.59406 206.46094,-171.59961 6.66992,-103.24551 -75.30511,-142.6731 -139.20899,-145.65821 -85.72496,-0.87775 -61.4201,-0.89451 -85.72461,-0.8789 L 221.5918,130.873 129.63867,601.53706 C 65.789646,540.70229 25.999994,454.84265 26,359.68945 26.000012,175.22636 175.5369,25.689453 360,25.689453 Z m 38.31055,196.160157 c 45.01179,2.18604 68.66189,21.11689 64.99023,65.5918 -3.08655,37.38712 -30.54999,71.94609 -91.35156,69.91992 l -68.43164,0.77734 27.1289,-135.62109 z"
       transform="matrix(0.26458333,0,0,0.26458333,0,106.5)"
       id="path4602"
       inkscape:connector-curvature="0" />
    <circle
       style="fill:#000000;stroke-width:0.26458332"
       id="path4622"
       cy="201.75"
       cx="95.25"
       r="0" />
    <path
       style="fill:#ffffff;stroke-width:0.26458332"
       d="m 35.652604,141.22656 16.66875,-0.13229 -16.205729,83.54218 H 19.513021 Z"
       id="rect4644"
       inkscape:connector-curvature="0"
       sodipodi:nodetypes="ccccc" />
  </g>
</svg>
